<svg width="1315" height="450" viewBox="0 0 1315 450" fill="none" xmlns="http://www.w3.org/2000/svg">
<path d="M180.737 339.79C175.74 340 173.792 336 176.266 332.3C184.575 317.32 193.05 302.43 201.329 287.43C202.985 284.44 204.388 281.21 205.352 277.92C207.709 269.91 204.407 265.06 196.264 264.89C183.28 264.62 149.431 264.99 144.589 264.81C134.936 264.45 130.115 262.04 125.566 253.72C113.594 231.88 100.649 210.59 87.9276 189.19C86.2132 186.31 87.1483 184.35 88.5315 182.06C100.493 162.39 126.189 119.74 127.3 118.24C128.975 115.98 131.381 115.32 133.495 118.19C134.819 119.98 140.401 130.49 143.869 136.64C163.282 171.15 182.695 205.66 202.147 240.15C203.55 242.64 205.099 245.12 206.959 247.27C211.82 252.88 217.713 253.08 222.632 247.58C225.175 244.73 227.23 241.35 229.139 237.99C237.682 222.98 246.156 207.92 254.494 192.78C255.799 190.41 257.3 189.61 259.861 189.62C285.567 189.69 311.273 189.65 336.979 189.67C341.781 189.67 342.365 190.75 339.95 194.99C313.28 241.76 286.58 288.51 259.959 335.32C258.244 338.34 256.062 339.52 252.751 339.49C240.604 339.39 192.582 339.8 180.718 339.78L180.737 339.79Z" fill="white"/>
<path d="M323.313 169C339.183 169 352.048 155.792 352.048 139.5C352.048 123.208 339.183 110 323.313 110C307.443 110 294.577 123.208 294.577 139.5C294.577 155.792 307.443 169 323.313 169Z" fill="#08A0F8"/>
<path d="M673.339 148.969L604.628 242.289V298.839H570.954V242.489L502.048 148.969H544.284L587.688 208.919L631.093 148.969H673.329H673.339Z" fill="white"/>
<path d="M801.605 148.969H835.279V236.489C835.279 255.409 828.859 270.859 816.011 282.849C803.29 294.839 786.682 300.829 766.187 300.829C745.693 300.829 729.144 294.839 716.558 282.849C703.837 270.859 697.486 255.409 697.486 236.489V148.969H731.16V236.489C731.16 246.879 734.374 255.209 740.793 261.469C747.213 267.729 755.687 270.859 766.197 270.859C776.708 270.859 785.396 267.729 791.893 261.469C798.381 255.209 801.624 246.879 801.624 236.489V148.969H801.605Z" fill="white"/>
<path d="M1039.06 148.969L957.515 298.839H941.94L860.195 148.969H899.119L949.722 244.079L1000.33 148.969H1039.05H1039.06Z" fill="white"/>
<path d="M1099.8 148.969V298.839H1066.12V148.969H1099.8Z" fill="white"/>
</svg>
